<?xml version="1.0" encoding="UTF-8" standalone="no"?>
<!-- Created with Inkscape (http://www.inkscape.org/) -->

<svg
   width="16"
   height="16"
   viewBox="0 0 4.2333332 4.2333333"
   version="1.1"
   id="svg3026"
   inkscape:version="1.2 (dc2aedaf03, 2022-05-15)"
   xml:space="preserve"
   sodipodi:docname="brush.svg"
   xmlns:inkscape="http://www.inkscape.org/namespaces/inkscape"
   xmlns:sodipodi="http://sodipodi.sourceforge.net/DTD/sodipodi-0.dtd"
   xmlns="http://www.w3.org/2000/svg"
   xmlns:svg="http://www.w3.org/2000/svg"><sodipodi:namedview
     id="namedview3028"
     pagecolor="#ffffff"
     bordercolor="#666666"
     borderopacity="1.0"
     inkscape:showpageshadow="2"
     inkscape:pageopacity="0.0"
     inkscape:pagecheckerboard="0"
     inkscape:deskcolor="#d1d1d1"
     inkscape:document-units="mm"
     showgrid="false"
     inkscape:zoom="38.183766"
     inkscape:cx="4.4390593"
     inkscape:cy="8.6293217"
     inkscape:window-width="1920"
     inkscape:window-height="1011"
     inkscape:window-x="0"
     inkscape:window-y="32"
     inkscape:window-maximized="1"
     inkscape:current-layer="layer1" /><defs
     id="defs3023"><style
       id="style4974">.cls-1{fill-rule:evenodd;}</style></defs><g
     inkscape:label="Layer 1"
     inkscape:groupmode="layer"
     id="layer1"><path
       class="cls-1"
       d="M 3.415621e-4,3.9040789 C 0.40335756,3.6154231 1.0495606,3.9254349 1.3034266,3.4218378 a 0.57386696,0.57386696 0 0 0 0.02136,-0.4605404 0.37545917,0.37545917 0 0 0 -0.109193,-0.1498391 0.40921606,0.40921606 0 0 0 -0.07268,-0.046502 C 0.81120056,2.6003054 0.46536556,2.8307473 0.28176956,3.1094143 0.11298456,3.3653466 0.04064856,3.6850035 2.5620976e-6,3.9040788 Z M 1.8635146,1.8249309 a 1.8707512,1.8707512 0 0 1 0.516687,0.622091 L 4.1090365,0.75366586 c 0.1091932,-0.103337 0.172229,-0.190485 0.079225,-0.348935 a 0.22389768,0.22389768 0 0 0 -0.143639,-0.07544 0.24422069,0.24422069 0 0 0 -0.1587951,0.05511 z m -0.580411,0.7578073 c 0.09714,0.052357 0.230442,0.1808404 0.262132,0.3210347 L 2.2679086,2.5338251 C 2.1377036,2.2741039 1.9713306,2.0515839 1.7432996,1.8938219 c -0.237676,0.319313 -0.189452,0.38476 -0.460196,0.6889163 z"
       id="path4980"
       style="stroke-width:0.0344458;fill:#bfbfbf;fill-opacity:1" /></g></svg>
