<?xml version="1.0" encoding="UTF-8" standalone="no"?>
<!-- Created with Inkscape (http://www.inkscape.org/) -->

<svg
   width="16"
   height="16"
   viewBox="0 0 4.2333332 4.2333333"
   version="1.1"
   id="svg3026"
   inkscape:version="1.2 (dc2aedaf03, 2022-05-15)"
   xml:space="preserve"
   sodipodi:docname="bucket.svg"
   xmlns:inkscape="http://www.inkscape.org/namespaces/inkscape"
   xmlns:sodipodi="http://sodipodi.sourceforge.net/DTD/sodipodi-0.dtd"
   xmlns="http://www.w3.org/2000/svg"
   xmlns:svg="http://www.w3.org/2000/svg"><sodipodi:namedview
     id="namedview3028"
     pagecolor="#ffffff"
     bordercolor="#666666"
     borderopacity="1.0"
     inkscape:showpageshadow="2"
     inkscape:pageopacity="0.0"
     inkscape:pagecheckerboard="0"
     inkscape:deskcolor="#d1d1d1"
     inkscape:document-units="mm"
     showgrid="false"
     inkscape:zoom="27"
     inkscape:cx="-4.5"
     inkscape:cy="8.6111111"
     inkscape:window-width="1920"
     inkscape:window-height="1011"
     inkscape:window-x="0"
     inkscape:window-y="32"
     inkscape:window-maximized="1"
     inkscape:current-layer="layer1" /><defs
     id="defs3023" /><g
     inkscape:label="Layer 1"
     inkscape:groupmode="layer"
     id="layer1"><path
       class="st0"
       d="m 3.4570009,2.5326287 c 0.1309029,0.567017 0.5232675,0.85018 0.5232675,1.133689 0,0.283508 -0.1309031,0.567016 -0.5232675,0.567016 -0.3923645,0 -0.5232674,-0.283508 -0.5232674,-0.567016 0,-0.283509 0.3927088,-0.566672 0.5232674,-1.133689 z m -2.80339073,-2.32869503 0.1832642,-0.183264 c 0.027558,-0.02756 0.072341,-0.02756 0.0999,0 l 0.55771563,0.557715 0.286953,-0.286953 c 0.077508,-0.07751 0.2046221,-0.07751 0.2821305,0 L 3.5338207,1.7616787 c 0.077508,0.07751 0.077508,0.204622 0,0.282131 l -1.4702472,1.470247 c -0.077508,0.07751 -0.2046221,0.07751 -0.2821305,0 L 0.31119597,2.0441537 c -0.077508,-0.07751 -0.077508,-0.204622 0,-0.28213 L 1.2113262,0.86154867 0.65361057,0.30383367 c -0.027559,-0.02721 -0.027559,-0.07234 -4e-7,-0.0999 z m 1.36931413,0.55496 1.0441234,1.04412303 c 0.030659,0.03066 0.044094,0.072 0.040993,0.112301 H 0.73731877 c -0.00344,-0.0403 0.010334,-0.08164 0.040649,-0.112301 L 1.8220913,0.75889367 c 0.055461,-0.05512 0.1457157,-0.05512 0.200833,0 z"
       id="path4075"
       style="stroke-width:0.0344481;fill:#bfbfbf;fill-opacity:1" /></g><style
     type="text/css"
     id="style4073">.st0{fill-rule:evenodd;clip-rule:evenodd;}</style></svg>
