<?xml version="1.0" encoding="UTF-8" standalone="no"?>
<!-- Created with Inkscape (http://www.inkscape.org/) -->

<svg
   width="16"
   height="16"
   viewBox="0 0 4.2333332 4.2333333"
   version="1.1"
   id="svg3026"
   inkscape:version="1.2 (dc2aedaf03, 2022-05-15)"
   xml:space="preserve"
   sodipodi:docname="color-picker.svg"
   xmlns:inkscape="http://www.inkscape.org/namespaces/inkscape"
   xmlns:sodipodi="http://sodipodi.sourceforge.net/DTD/sodipodi-0.dtd"
   xmlns="http://www.w3.org/2000/svg"
   xmlns:svg="http://www.w3.org/2000/svg"><sodipodi:namedview
     id="namedview3028"
     pagecolor="#ffffff"
     bordercolor="#666666"
     borderopacity="1.0"
     inkscape:showpageshadow="2"
     inkscape:pageopacity="0.0"
     inkscape:pagecheckerboard="0"
     inkscape:deskcolor="#d1d1d1"
     inkscape:document-units="mm"
     showgrid="false"
     inkscape:zoom="26"
     inkscape:cx="9.3269231"
     inkscape:cy="12.75"
     inkscape:window-width="1920"
     inkscape:window-height="1011"
     inkscape:window-x="0"
     inkscape:window-y="32"
     inkscape:window-maximized="1"
     inkscape:current-layer="layer1" /><defs
     id="defs3023" /><g
     inkscape:label="Layer 1"
     inkscape:groupmode="layer"
     id="layer1"><path
       style="fill:#ffffff;stroke-width:0.0236001;fill-opacity:1"
       d="m 0.19634025,4.2286353 c -0.02851,-0.0052 -0.08412,-0.04647 -0.123576,-0.09164 -0.100687,-0.115278 -0.09724,-0.220534 0.01258,-0.384463 0.04638,-0.06923 0.104681,-0.185354 0.129564,-0.258056 0.02488,-0.0727 0.07649,-0.18096 0.114682,-0.240574 0.03819,-0.05961 0.466447,-0.506389 0.95167705,-0.992833 l 0.882236,-0.884444 -0.08086,-0.07666 c -0.132393,-0.125518 -0.101981,-0.229044 0.130975,-0.445851 0.151565,-0.141059 0.243959,-0.169001 0.357262,-0.108045 0.04303,0.02315 0.08355,-0.0093 0.380952,-0.30476 C 3.3239663,0.0715613 3.4300093,0.0021433 3.6259393,2.7295766e-5 3.9162363,-0.00307271 4.1844293,0.2571323 4.2291873,0.5853873 c 0.02566,0.188159 -0.06184,0.331646 -0.429913,0.705063 -0.284923,0.289055 -0.316255,0.328804 -0.293249,0.372019 0.06067,0.113955 0.03326,0.190264 -0.129081,0.359297 -0.185016,0.192648 -0.260676,0.231707 -0.364828,0.188339 -0.03984,-0.01659 -0.08859,-0.05494 -0.108326,-0.08522 -0.03558,-0.05459 -0.04357,-0.04746 -0.93383,0.831863 -0.493868,0.487806 -0.939643,0.915246 -0.99061005,0.949867 -0.05097,0.03462 -0.156881,0.08304 -0.235364,0.107593 -0.07848,0.02455 -0.195668,0.0803 -0.26041,0.123871 -0.122514,0.08246 -0.199319,0.106672 -0.287236,0.09056 z m 0.225246,-0.267106 c 0.0634,-0.03922 0.177274,-0.09274 0.253048,-0.118951 0.07577,-0.02621 0.174999,-0.07373 0.2205,-0.105604 0.0455,-0.03187 0.46928205,-0.446843 0.94173705,-0.92215 l 0.859009,-0.864195 -0.205841,-0.206921 -0.205842,-0.206922 -0.872415,0.875348 c -0.47982905,0.481441 -0.89712805,0.917938 -0.92733205,0.969995 -0.0302,0.05206 -0.07161,0.15389 -0.09202,0.226298 -0.02041,0.07241 -0.06916,0.176132 -0.108335,0.230499 -0.07047,0.0978 -0.08598,0.147531 -0.05554,0.178131 0.0295,0.02965 0.07777,0.01576 0.193031,-0.05553 z"
       id="path441" /></g></svg>
