<?xml version="1.0" encoding="UTF-8" standalone="no"?>
<!-- Created with Inkscape (http://www.inkscape.org/) -->

<svg
   width="16"
   height="16"
   viewBox="0 0 4.2333332 4.2333333"
   version="1.1"
   id="svg3026"
   inkscape:version="1.2 (dc2aedaf03, 2022-05-15)"
   xml:space="preserve"
   sodipodi:docname="eraser-selected.svg"
   xmlns:inkscape="http://www.inkscape.org/namespaces/inkscape"
   xmlns:sodipodi="http://sodipodi.sourceforge.net/DTD/sodipodi-0.dtd"
   xmlns="http://www.w3.org/2000/svg"
   xmlns:svg="http://www.w3.org/2000/svg"><sodipodi:namedview
     id="namedview3028"
     pagecolor="#ffffff"
     bordercolor="#666666"
     borderopacity="1.0"
     inkscape:showpageshadow="2"
     inkscape:pageopacity="0.0"
     inkscape:pagecheckerboard="0"
     inkscape:deskcolor="#d1d1d1"
     inkscape:document-units="mm"
     showgrid="false"
     inkscape:zoom="34.832508"
     inkscape:cx="3.7752091"
     inkscape:cy="7.5647725"
     inkscape:window-width="1920"
     inkscape:window-height="1011"
     inkscape:window-x="0"
     inkscape:window-y="32"
     inkscape:window-maximized="1"
     inkscape:current-layer="layer1" /><defs
     id="defs3023" /><g
     inkscape:label="Layer 1"
     inkscape:groupmode="layer"
     id="layer1"><path
       class="st0"
       d="M 0.95295935,3.5582052 H 2.0723733 L 2.3859057,3.2453619 c 0.048236,-0.048236 0.04858,-0.1274802 3.387e-4,-0.175716 L 1.4553002,2.1359396 C 1.4070642,2.0877036 1.3278201,2.0873596 1.2795843,2.1356009 L 0.49265253,2.92081 c -0.04858,0.048236 -0.04858,0.1274803 -3.44e-4,0.175716 z m 1.49427465,0 h 1.7861009 v 0.339373 H 2.107172 1.7323113 1.2912987 0.88542935 0.87337035 L 0.03613553,3.0579316 c -0.04824,-0.048236 -0.04824,-0.1274802 3.44e-4,-0.175716 L 2.553358,0.37188927 c 0.04858,-0.048236 0.1274802,-0.048236 0.175716,3.44e-4 L 4.0941456,1.7407565 c 0.048236,0.048236 0.048236,0.1274803 -3.387e-4,0.1757159 z"
       id="path3036"
       style="stroke-width:0.034454;fill:#0095f8;fill-opacity:1" /></g><style
     type="text/css"
     id="style3034">.st0{fill-rule:evenodd;clip-rule:evenodd;}</style></svg>
