<?xml version="1.0" encoding="UTF-8" standalone="no"?>
<!-- Created with Inkscape (http://www.inkscape.org/) -->

<svg
   width="16"
   height="16"
   viewBox="0 0 4.2333332 4.2333333"
   version="1.1"
   id="svg3026"
   inkscape:version="1.2 (dc2aedaf03, 2022-05-15)"
   xml:space="preserve"
   sodipodi:docname="folder.svg"
   xmlns:inkscape="http://www.inkscape.org/namespaces/inkscape"
   xmlns:sodipodi="http://sodipodi.sourceforge.net/DTD/sodipodi-0.dtd"
   xmlns="http://www.w3.org/2000/svg"
   xmlns:svg="http://www.w3.org/2000/svg"><sodipodi:namedview
     id="namedview3028"
     pagecolor="#ffffff"
     bordercolor="#666666"
     borderopacity="1.0"
     inkscape:showpageshadow="2"
     inkscape:pageopacity="0.0"
     inkscape:pagecheckerboard="0"
     inkscape:deskcolor="#d1d1d1"
     inkscape:document-units="mm"
     showgrid="false"
     inkscape:zoom="18.384776"
     inkscape:cx="1.8221598"
     inkscape:cy="9.70912"
     inkscape:window-width="1920"
     inkscape:window-height="1011"
     inkscape:window-x="0"
     inkscape:window-y="32"
     inkscape:window-maximized="1"
     inkscape:current-layer="layer1" /><defs
     id="defs3023" /><g
     inkscape:label="Layer 1"
     inkscape:groupmode="layer"
     id="layer1"><path
       style="fill:#ffffff;stroke-width:0.0261317;fill-opacity:1"
       d="M 0.04325267,3.5322542 C 0.00416267,3.4890642 2.666667e-6,3.3524322 2.666667e-6,2.1121272 c 0,-1.29631203 0.00260000333,-1.37473503 0.047790003333,-1.41558603 0.04279,-0.03873 0.157124,-0.04325 1.09348103,-0.04325 0.963071,0 1.048888,0.0036 1.086131,0.04573 0.0373,0.04218 0.385769,0.72049203 0.385769,0.75091303 0,0.0074 -0.07966,0.01344 -0.177024,0.01344 H 2.2591247 L 2.1358067,1.2151232 2.0124877,0.96687217 H 1.1630367 0.31358467 V 1.9381002 c 0,0.534175 0.0045,0.966328 0.01004,0.960339 0.0055,-0.006 0.194486,-0.275471 0.419914,-0.598851 0.225428,-0.323379 0.43387803,-0.608541 0.46322103,-0.633693 0.04941,-0.04235 0.1594,-0.04573 1.4877,-0.04573 1.399505,0 1.435617,0.0013 1.486611,0.05226 0.02875,0.02874 0.05226,0.07993 0.05226,0.113738 0,0.05546 -1.038157,1.578029 -1.183053,1.735079 l -0.05425,0.0588 h -1.454769 c -1.37617003,0 -1.45710603,-0.0026 -1.49801703,-0.04779 z"
       id="path5747" /></g></svg>
