<?xml version="1.0" encoding="UTF-8" standalone="no"?>
<!-- Created with Inkscape (http://www.inkscape.org/) -->

<svg
   width="16"
   height="16"
   viewBox="0 0 4.2333332 4.2333333"
   version="1.1"
   id="svg1715"
   inkscape:version="1.2 (dc2aedaf03, 2022-05-15)"
   sodipodi:docname="icon-pressed.svg"
   xmlns:inkscape="http://www.inkscape.org/namespaces/inkscape"
   xmlns:sodipodi="http://sodipodi.sourceforge.net/DTD/sodipodi-0.dtd"
   xmlns="http://www.w3.org/2000/svg"
   xmlns:svg="http://www.w3.org/2000/svg">
  <sodipodi:namedview
     id="namedview1717"
     pagecolor="#ffffff"
     bordercolor="#666666"
     borderopacity="1.0"
     inkscape:showpageshadow="2"
     inkscape:pageopacity="0.0"
     inkscape:pagecheckerboard="0"
     inkscape:deskcolor="#d1d1d1"
     inkscape:document-units="mm"
     showgrid="false"
     inkscape:zoom="8.3856039"
     inkscape:cx="8.4072657"
     inkscape:cy="14.727621"
     inkscape:window-width="1920"
     inkscape:window-height="1011"
     inkscape:window-x="0"
     inkscape:window-y="32"
     inkscape:window-maximized="1"
     inkscape:current-layer="layer1" />
  <defs
     id="defs1712" />
  <g
     inkscape:label="Layer 1"
     inkscape:groupmode="layer"
     id="layer1">
    <path
       style="fill:#3891e9;fill-opacity:1;stroke-width:0.0189794"
       d="M 0.20686623,4.2118821 C -0.05433697,4.0892181 -0.06981217,3.730128 0.16972623,3.3500635 0.30222603,3.1398319 0.38594023,3.0716543 0.75174043,2.8760666 1.0606578,2.7108929 1.1765646,2.621605 1.2251685,2.5113639 1.2598125,2.4327849 1.2614465,2.4122339 1.2416225,2.304291 1.2295175,2.2383809 1.1807975,2.0590185 1.1333545,1.9057079 L 1.0470949,1.6269613 1.8207097,0.84947085 C 2.2461979,0.42185148 2.6164523,0.05578501 2.6434969,0.0359902 L 2.6926699,0 3.4630016,0.76128474 C 3.8866842,1.1799913 4.2333333,1.5325553 4.2333333,1.5447605 c 0,0.012205 -0.3645138,0.3869972 -0.8100303,0.8328717 L 2.6132725,3.1883126 2.3574734,3.1050333 C 2.0106044,2.9921055 1.8394325,2.9569889 1.761549,2.9827776 1.6514728,3.0192263 1.5589052,3.1424237 1.3458029,3.5360905 1.155178,3.8882337 1.0162165,4.0264943 0.71159063,4.1671037 c -0.1018362,0.047005 -0.1564034,0.059326 -0.286821,0.064761 -0.1110379,0.00463 -0.178713,-0.00159 -0.2179028,-0.019984 z m 0.3561789,-0.2604928 c 0.049117,-0.013684 0.07769,-0.035177 0.090019,-0.067711 0.0220529,-0.058196 0.002355,-0.2468341 -0.0284399,-0.2724842 -0.0122899,-0.010234 -0.0705607,-0.024291 -0.1294918,-0.03124 -0.1501408,-0.017703 -0.203,0.017735 -0.203,0.1360989 0,0.1536248 0.064764,0.2501961 0.1705327,0.2542856 0.015632,6.085e-4 0.060803,-0.00792 0.10038,-0.018949 z M 2.7705811,2.8120924 2.908942,2.664924 2.2528966,2.0065431 C 1.8920716,1.644433 1.5841371,1.3481615 1.5685976,1.3481615 c -0.015539,0 -0.089484,0.060108 -0.1643207,0.1335739 L 1.2682096,1.615309 1.9407407,2.2893909 c 0.3698922,0.3707447 0.6767948,0.6731339 0.6820055,0.6719758 0.00521,-0.00116 0.071737,-0.068331 0.1478349,-0.1492743 z M 3.2939385,2.074123 C 3.3348185,2.04603 3.4739104,1.9203862 3.6030313,1.7949149 L 3.8377966,1.5667856 3.247784,0.97745115 2.6577715,0.3881171 2.4222032,0.6352573 C 2.135865,0.93566055 2.0461388,1.0588489 2.0486608,1.1481076 c 0.00101,0.035421 0.00745,0.073536 0.014325,0.084701 0.025241,0.040976 0.1471874,0.018336 0.3181479,-0.059064 0.1059101,-0.04795 0.2052958,-0.07993 0.251088,-0.080796 l 0.075792,-0.00143 0.00586,0.081389 c 0.00411,0.05717 -0.00896,0.1137402 -0.043935,0.190108 -0.062577,0.1366382 -0.079567,0.2660968 -0.041577,0.3167936 0.02576,0.034375 0.036361,0.035379 0.150608,0.014258 0.1557083,-0.028785 0.228093,-0.028759 0.25685,9.34e-5 0.014727,0.014777 0.022738,0.091464 0.022738,0.2176794 0,0.1653566 0.00502,0.1978706 0.033159,0.2147034 0.044688,0.026734 0.1127032,0.0091 0.2022274,-0.052418 z"
       id="path913" />
  </g>
</svg>
