<?xml version="1.0" encoding="UTF-8" standalone="no"?>
<!-- Created with Inkscape (http://www.inkscape.org/) -->

<svg
   width="16"
   height="16"
   viewBox="0 0 4.2333333 4.2333332"
   version="1.1"
   id="svg5"
   xml:space="preserve"
   inkscape:version="1.2 (dc2aedaf03, 2022-05-15)"
   sodipodi:docname="icon.svg"
   xmlns:inkscape="http://www.inkscape.org/namespaces/inkscape"
   xmlns:sodipodi="http://sodipodi.sourceforge.net/DTD/sodipodi-0.dtd"
   xmlns="http://www.w3.org/2000/svg"
   xmlns:svg="http://www.w3.org/2000/svg"><sodipodi:namedview
     id="namedview7"
     pagecolor="#ffffff"
     bordercolor="#666666"
     borderopacity="1.0"
     inkscape:showpageshadow="2"
     inkscape:pageopacity="0.0"
     inkscape:pagecheckerboard="0"
     inkscape:deskcolor="#d1d1d1"
     inkscape:document-units="mm"
     showgrid="false"
     inkscape:zoom="8.3856039"
     inkscape:cx="18.662937"
     inkscape:cy="32.853925"
     inkscape:window-width="1920"
     inkscape:window-height="1011"
     inkscape:window-x="0"
     inkscape:window-y="32"
     inkscape:window-maximized="1"
     inkscape:current-layer="layer1" /><defs
     id="defs2" /><g
     inkscape:label="Layer 1"
     inkscape:groupmode="layer"
     id="layer1"><path
       style="fill:#808080;stroke-width:0.0189794;fill-opacity:1"
       d="M 0.20686545,4.2118839 C -0.05433781,4.0892198 -0.06981302,3.7301296 0.16972536,3.3500651 0.30222522,3.1398335 0.38593937,3.0716559 0.75173955,2.8760682 1.060657,2.7108946 1.1765638,2.6216066 1.2251677,2.5113656 c 0.034644,-0.078579 0.036278,-0.09913 0.016454,-0.207073 -0.012105,-0.06591 -0.060825,-0.2452725 -0.108268,-0.398583 L 1.0470941,1.6269631 1.8207089,0.84947259 C 2.2461971,0.42185318 2.6164515,0.05578671 2.6434961,0.0359919 L 2.6926689,1.6800994e-6 3.4630006,0.76128642 C 3.8866834,1.1799931 4.2333325,1.5325571 4.2333325,1.5447623 c 0,0.012205 -0.3645138,0.3869971 -0.8100303,0.8328715 L 2.6132717,3.1883142 2.3574726,3.105035 C 2.0106036,2.9921071 1.8394317,2.9569905 1.7615482,2.9827792 1.651472,3.0192279 1.5589044,3.1424254 1.3458021,3.5360921 1.1551772,3.8882354 1.0162157,4.0264961 0.71158982,4.1671055 0.60975356,4.2141109 0.55518643,4.2264317 0.42476882,4.2318665 0.31373089,4.2364941 0.24605579,4.230279 0.20686597,4.2118825 Z m 0.35617884,-0.260493 c 0.0491173,-0.013684 0.0776904,-0.035177 0.0900189,-0.067711 0.022053,-0.058196 0.002355,-0.2468341 -0.0284398,-0.2724841 -0.0122899,-0.010234 -0.0705607,-0.024291 -0.12949183,-0.03124 -0.15014071,-0.017703 -0.20299995,0.017735 -0.20299995,0.1360988 0,0.153625 0.0647639,0.2501961 0.17053267,0.2542858 0.0156316,6.085e-4 0.0608031,-0.00792 0.10038001,-0.01895 z M 2.7705803,2.812094 2.9089412,2.6649256 2.2528958,2.0065447 C 1.8920708,1.6444348 1.5841363,1.3481633 1.5685968,1.3481633 c -0.015539,0 -0.089484,0.060108 -0.1643207,0.1335739 L 1.2682088,1.6153108 1.9407399,2.2893925 c 0.3698922,0.3707447 0.6767948,0.6731339 0.6820055,0.6719758 0.00521,-0.00116 0.071737,-0.068331 0.1478349,-0.1492743 z M 3.2939377,2.0741246 c 0.04088,-0.028093 0.1799719,-0.1537367 0.3090928,-0.279208 L 3.8377958,1.5667873 3.2477832,0.9774529 2.6577707,0.3881188 2.4222024,0.635259 C 2.1358642,0.93566222 2.046138,1.0588507 2.04866,1.1481094 c 0.00101,0.035421 0.00745,0.073536 0.014325,0.084701 0.025241,0.040976 0.1471874,0.018336 0.3181479,-0.059064 0.1059101,-0.04795 0.2052958,-0.07993 0.251088,-0.080796 l 0.075792,-0.00143 0.00586,0.081389 c 0.00411,0.05717 -0.00896,0.1137402 -0.043935,0.190108 -0.062577,0.1366382 -0.079567,0.2660968 -0.041577,0.3167936 0.02576,0.034375 0.036361,0.035379 0.150608,0.014258 0.1557083,-0.028785 0.228093,-0.028759 0.25685,9.34e-5 0.014727,0.014777 0.022738,0.091464 0.022738,0.2176794 0,0.1653564 0.00502,0.1978705 0.033159,0.2147033 0.044688,0.026734 0.1127032,0.0091 0.2022274,-0.052418 z"
       id="path913" /></g></svg>
