<?xml version="1.0" encoding="UTF-8" standalone="no"?>
<!-- Created with Inkscape (http://www.inkscape.org/) -->

<svg
   width="16"
   height="16"
   viewBox="0 0 4.2333333 4.2333332"
   version="1.1"
   id="svg5"
   xml:space="preserve"
   inkscape:version="1.2 (dc2aedaf03, 2022-05-15)"
   sodipodi:docname="undo-hover.svg"
   xmlns:inkscape="http://www.inkscape.org/namespaces/inkscape"
   xmlns:sodipodi="http://sodipodi.sourceforge.net/DTD/sodipodi-0.dtd"
   xmlns="http://www.w3.org/2000/svg"
   xmlns:svg="http://www.w3.org/2000/svg"><sodipodi:namedview
     id="namedview7"
     pagecolor="#ffffff"
     bordercolor="#666666"
     borderopacity="1.0"
     inkscape:showpageshadow="2"
     inkscape:pageopacity="0.0"
     inkscape:pagecheckerboard="0"
     inkscape:deskcolor="#d1d1d1"
     inkscape:document-units="mm"
     showgrid="false"
     inkscape:zoom="23.71807"
     inkscape:cx="8.6642802"
     inkscape:cy="7.230774"
     inkscape:window-width="1920"
     inkscape:window-height="1011"
     inkscape:window-x="0"
     inkscape:window-y="32"
     inkscape:window-maximized="1"
     inkscape:current-layer="layer1" /><defs
     id="defs2" /><g
     inkscape:label="Layer 1"
     inkscape:groupmode="layer"
     id="layer1"><path
       style="fill:#bfbfbf;fill-opacity:1;stroke-width:0.0110462"
       d="M 4.0605528,3.7041721 C 3.6799743,3.0664673 3.3980807,2.7527303 3.0755366,2.607886 2.773676,2.4723297 2.5297924,2.4100615 2.2119995,2.3874077 l -0.1021771,-0.00728 v 0.4426806 0.442683 L 1.0549112,2.5622269 C 0.47471022,2.1754321 3.1666667e-7,1.8556344 3.1666667e-7,1.8515657 3.1666667e-7,1.8474957 0.47471022,1.5276993 1.0549112,1.1409046 L 2.1098223,0.43764112 v 0.4416433 0.44164338 l 0.024853,0.00504 c 0.01367,0.00278 0.072195,0.00786 0.1300563,0.011302 0.2345719,0.013965 0.5334669,0.078966 0.743867,0.161769 C 3.2642138,1.5996368 3.4736487,1.7360282 3.668646,1.9288862 3.9613258,2.2183556 4.1219975,2.5304899 4.197942,2.9571411 4.218566,3.073 4.223201,3.1486358 4.227843,3.4449757 L 4.233333,3.7956922 4.174018,3.7953 4.114703,3.7949079 4.06055,3.7041679 Z"
       id="path858" /></g></svg>
